# xmcd
#
# Track frame offsets:
#  150
#  22012
#  40175
#  54150
#  81887
#  97487
#  116500
#  137512
#  155962
#
# Disc length: 2362 seconds
#
# Revision: 2
# Processed by: cddbd v1.5.1PL0 Copyright (c) Steve Scherf et al.
# Submitted via: AltoMP3_Maker 3.0
#
DISCID=77093809
DTITLE=Billy Thorpe and The Aztecs - Pick Me Up and Play Me Loud
DYEAR=1900
DGENRE=
TTITLE0=Movin' On The Sound
TTITLE1=Blue Mary
TTITLE2=Good Night Out
TTITLE3=Most People I Know Think That I'm Crazy
TTITLE4=Bassballs
TTITLE5=See What I Mean
TTITLE6=Let Yourself Go
TTITLE7=You keep Me Hangin' Around
TTITLE8=Long Live Rock 'n' Roll
EXTD=
EXTT0=
EXTT1=
EXTT2=
EXTT3=
EXTT4=
EXTT5=
EXTT6=
EXTT7=
EXTT8=
PLAYORDER=
